<mxfile host="Electron" agent="Mozilla/5.0 (Windows NT 10.0; Win64; x64) AppleWebKit/537.36 (KHTML, like Gecko) draw.io/25.0.2 Chrome/128.0.6613.186 Electron/32.2.5 Safari/537.36" version="25.0.2">
  <diagram name="Page-1" id="c4acf3e9-155e-7222-9cf6-157b1a14988f">
    <mxGraphModel dx="4595" dy="7035" grid="1" gridSize="10" guides="1" tooltips="1" connect="1" arrows="1" fold="1" page="1" pageScale="1" pageWidth="850" pageHeight="1100" background="none" math="0" shadow="0">
      <root>
        <mxCell id="0" />
        <mxCell id="1" parent="0" />
        <mxCell id="0cJxZPgAgiQbFB9tsyrJ-9" value="" style="edgeStyle=orthogonalEdgeStyle;rounded=0;orthogonalLoop=1;jettySize=auto;html=1;curved=1;exitX=0.382;exitY=1.021;exitDx=0;exitDy=0;exitPerimeter=0;fontSize=16;" edge="1" parent="1" source="0cJxZPgAgiQbFB9tsyrJ-130" target="0cJxZPgAgiQbFB9tsyrJ-8">
          <mxGeometry relative="1" as="geometry">
            <mxPoint x="1310" y="-739.9200000000001" as="sourcePoint" />
            <Array as="points">
              <mxPoint x="1316" y="-720" />
              <mxPoint x="1125" y="-720" />
            </Array>
          </mxGeometry>
        </mxCell>
        <mxCell id="0cJxZPgAgiQbFB9tsyrJ-11" value="" style="edgeStyle=orthogonalEdgeStyle;rounded=0;orthogonalLoop=1;jettySize=auto;html=1;curved=1;exitX=0.5;exitY=1;exitDx=0;exitDy=0;fontSize=16;" edge="1" parent="1" source="0cJxZPgAgiQbFB9tsyrJ-130" target="0cJxZPgAgiQbFB9tsyrJ-10">
          <mxGeometry relative="1" as="geometry">
            <mxPoint x="1325" y="-740" as="sourcePoint" />
          </mxGeometry>
        </mxCell>
        <mxCell id="0cJxZPgAgiQbFB9tsyrJ-13" value="" style="edgeStyle=orthogonalEdgeStyle;rounded=0;orthogonalLoop=1;jettySize=auto;html=1;curved=1;exitX=0.624;exitY=1.011;exitDx=0;exitDy=0;exitPerimeter=0;fontSize=16;" edge="1" parent="1" source="0cJxZPgAgiQbFB9tsyrJ-130" target="0cJxZPgAgiQbFB9tsyrJ-12">
          <mxGeometry relative="1" as="geometry">
            <mxPoint x="1341.56" y="-739.7599999999998" as="sourcePoint" />
            <Array as="points">
              <mxPoint x="1345" y="-710" />
              <mxPoint x="1555" y="-710" />
            </Array>
          </mxGeometry>
        </mxCell>
        <mxCell id="0cJxZPgAgiQbFB9tsyrJ-110" style="edgeStyle=orthogonalEdgeStyle;rounded=0;orthogonalLoop=1;jettySize=auto;html=1;entryX=1;entryY=0.5;entryDx=0;entryDy=0;exitX=1;exitY=0.5;exitDx=0;exitDy=0;fontSize=16;" edge="1" parent="1" source="0cJxZPgAgiQbFB9tsyrJ-130" target="0cJxZPgAgiQbFB9tsyrJ-132">
          <mxGeometry relative="1" as="geometry">
            <mxPoint x="1380" y="-780" as="sourcePoint" />
            <mxPoint x="1390" y="-280" as="targetPoint" />
            <Array as="points">
              <mxPoint x="1650" y="-780" />
              <mxPoint x="1650" y="-280" />
            </Array>
          </mxGeometry>
        </mxCell>
        <mxCell id="0cJxZPgAgiQbFB9tsyrJ-8" value="TEAMID" style="ellipse;whiteSpace=wrap;html=1;fontStyle=5;fontSize=16;" vertex="1" parent="1">
          <mxGeometry x="1055" y="-640" width="120" height="80" as="geometry" />
        </mxCell>
        <mxCell id="0cJxZPgAgiQbFB9tsyrJ-10" value="TEAMNAME" style="ellipse;whiteSpace=wrap;html=1;fontSize=16;" vertex="1" parent="1">
          <mxGeometry x="1185" y="-640" width="120" height="80" as="geometry" />
        </mxCell>
        <mxCell id="0cJxZPgAgiQbFB9tsyrJ-12" value="MAINSTADIUM" style="ellipse;whiteSpace=wrap;html=1;fontSize=16;" vertex="1" parent="1">
          <mxGeometry x="1485" y="-640" width="120" height="80" as="geometry" />
        </mxCell>
        <mxCell id="0cJxZPgAgiQbFB9tsyrJ-18" style="edgeStyle=orthogonalEdgeStyle;rounded=0;orthogonalLoop=1;jettySize=auto;html=1;exitX=0.5;exitY=1;exitDx=0;exitDy=0;curved=1;entryX=0.5;entryY=0;entryDx=0;entryDy=0;fontSize=16;" edge="1" parent="1" source="0cJxZPgAgiQbFB9tsyrJ-130" target="0cJxZPgAgiQbFB9tsyrJ-15">
          <mxGeometry relative="1" as="geometry">
            <mxPoint x="1325" y="-740" as="sourcePoint" />
            <mxPoint x="1375" y="-720" as="targetPoint" />
          </mxGeometry>
        </mxCell>
        <mxCell id="0cJxZPgAgiQbFB9tsyrJ-15" value="CITY" style="ellipse;whiteSpace=wrap;html=1;fontSize=16;" vertex="1" parent="1">
          <mxGeometry x="1355" y="-640" width="120" height="80" as="geometry" />
        </mxCell>
        <mxCell id="0cJxZPgAgiQbFB9tsyrJ-19" value="" style="edgeStyle=orthogonalEdgeStyle;rounded=0;orthogonalLoop=1;jettySize=auto;html=1;curved=1;exitX=0.373;exitY=1.024;exitDx=0;exitDy=0;exitPerimeter=0;fontSize=16;" edge="1" parent="1" source="0cJxZPgAgiQbFB9tsyrJ-134" target="0cJxZPgAgiQbFB9tsyrJ-23">
          <mxGeometry relative="1" as="geometry">
            <Array as="points">
              <mxPoint x="535" y="-710" />
              <mxPoint x="350" y="-710" />
            </Array>
            <mxPoint x="535" y="-739.9200000000001" as="sourcePoint" />
          </mxGeometry>
        </mxCell>
        <mxCell id="0cJxZPgAgiQbFB9tsyrJ-20" value="" style="edgeStyle=orthogonalEdgeStyle;rounded=0;orthogonalLoop=1;jettySize=auto;html=1;curved=1;exitX=0.498;exitY=1.024;exitDx=0;exitDy=0;exitPerimeter=0;fontSize=16;" edge="1" parent="1" source="0cJxZPgAgiQbFB9tsyrJ-134" target="0cJxZPgAgiQbFB9tsyrJ-24">
          <mxGeometry relative="1" as="geometry">
            <mxPoint x="550" y="-740" as="sourcePoint" />
          </mxGeometry>
        </mxCell>
        <mxCell id="0cJxZPgAgiQbFB9tsyrJ-21" value="" style="edgeStyle=orthogonalEdgeStyle;rounded=0;orthogonalLoop=1;jettySize=auto;html=1;curved=1;exitX=0.645;exitY=1.033;exitDx=0;exitDy=0;exitPerimeter=0;fontSize=16;" edge="1" parent="1" source="0cJxZPgAgiQbFB9tsyrJ-134" target="0cJxZPgAgiQbFB9tsyrJ-25">
          <mxGeometry relative="1" as="geometry">
            <Array as="points">
              <mxPoint x="567" y="-710" />
              <mxPoint x="780" y="-710" />
            </Array>
            <mxPoint x="566.56" y="-739.76" as="sourcePoint" />
          </mxGeometry>
        </mxCell>
        <mxCell id="0cJxZPgAgiQbFB9tsyrJ-31" value="" style="edgeStyle=orthogonalEdgeStyle;rounded=0;orthogonalLoop=1;jettySize=auto;html=1;curved=1;entryX=0.5;entryY=0;entryDx=0;entryDy=0;exitX=0.5;exitY=1;exitDx=0;exitDy=0;fontSize=16;" edge="1" parent="1" source="0cJxZPgAgiQbFB9tsyrJ-134" target="0cJxZPgAgiQbFB9tsyrJ-30">
          <mxGeometry relative="1" as="geometry">
            <mxPoint x="550" y="-740" as="sourcePoint" />
            <Array as="points">
              <mxPoint x="550" y="-550" />
              <mxPoint x="470" y="-550" />
            </Array>
          </mxGeometry>
        </mxCell>
        <mxCell id="0cJxZPgAgiQbFB9tsyrJ-33" value="" style="edgeStyle=orthogonalEdgeStyle;rounded=0;orthogonalLoop=1;jettySize=auto;html=1;curved=1;exitX=0.5;exitY=1;exitDx=0;exitDy=0;fontSize=16;" edge="1" parent="1" source="0cJxZPgAgiQbFB9tsyrJ-134" target="0cJxZPgAgiQbFB9tsyrJ-32">
          <mxGeometry relative="1" as="geometry">
            <mxPoint x="550" y="-740" as="sourcePoint" />
            <Array as="points">
              <mxPoint x="550" y="-550" />
              <mxPoint x="640" y="-550" />
            </Array>
          </mxGeometry>
        </mxCell>
        <mxCell id="0cJxZPgAgiQbFB9tsyrJ-102" style="edgeStyle=orthogonalEdgeStyle;rounded=0;orthogonalLoop=1;jettySize=auto;html=1;exitX=0.5;exitY=0;exitDx=0;exitDy=0;entryX=0.5;entryY=0;entryDx=0;entryDy=0;fontSize=16;" edge="1" parent="1" source="0cJxZPgAgiQbFB9tsyrJ-134" target="0cJxZPgAgiQbFB9tsyrJ-130">
          <mxGeometry relative="1" as="geometry">
            <mxPoint x="1320" y="-820" as="targetPoint" />
            <mxPoint x="550" y="-820" as="sourcePoint" />
            <Array as="points">
              <mxPoint x="550" y="-950" />
              <mxPoint x="1330" y="-950" />
            </Array>
          </mxGeometry>
        </mxCell>
        <mxCell id="0cJxZPgAgiQbFB9tsyrJ-103" value="1" style="edgeLabel;html=1;align=center;verticalAlign=middle;resizable=0;points=[];fontSize=16;labelBackgroundColor=none;fontStyle=1" vertex="1" connectable="0" parent="0cJxZPgAgiQbFB9tsyrJ-102">
          <mxGeometry x="-0.8184" y="-2" relative="1" as="geometry">
            <mxPoint x="788" y="55" as="offset" />
          </mxGeometry>
        </mxCell>
        <mxCell id="0cJxZPgAgiQbFB9tsyrJ-114" style="edgeStyle=orthogonalEdgeStyle;rounded=0;orthogonalLoop=1;jettySize=auto;html=1;entryX=0;entryY=0.5;entryDx=0;entryDy=0;exitX=0;exitY=0.5;exitDx=0;exitDy=0;fontSize=16;" edge="1" parent="1" source="0cJxZPgAgiQbFB9tsyrJ-134" target="0cJxZPgAgiQbFB9tsyrJ-115">
          <mxGeometry relative="1" as="geometry">
            <mxPoint x="460" y="-190" as="targetPoint" />
            <mxPoint x="470" y="-780" as="sourcePoint" />
            <Array as="points">
              <mxPoint x="200" y="-780" />
              <mxPoint x="200" y="-280" />
            </Array>
          </mxGeometry>
        </mxCell>
        <mxCell id="0cJxZPgAgiQbFB9tsyrJ-23" value="PLAYERID" style="ellipse;whiteSpace=wrap;html=1;fontStyle=5;fontSize=16;" vertex="1" parent="1">
          <mxGeometry x="280" y="-640" width="120" height="80" as="geometry" />
        </mxCell>
        <mxCell id="0cJxZPgAgiQbFB9tsyrJ-24" value="PLAYERNAME" style="ellipse;whiteSpace=wrap;html=1;fontSize=16;" vertex="1" parent="1">
          <mxGeometry x="410" y="-640" width="120" height="80" as="geometry" />
        </mxCell>
        <mxCell id="0cJxZPgAgiQbFB9tsyrJ-25" value="STARTYERAT" style="ellipse;whiteSpace=wrap;html=1;fontSize=16;" vertex="1" parent="1">
          <mxGeometry x="710" y="-640" width="120" height="80" as="geometry" />
        </mxCell>
        <mxCell id="0cJxZPgAgiQbFB9tsyrJ-26" style="edgeStyle=orthogonalEdgeStyle;rounded=0;orthogonalLoop=1;jettySize=auto;html=1;exitX=0.5;exitY=1;exitDx=0;exitDy=0;curved=1;entryX=0.5;entryY=0;entryDx=0;entryDy=0;fontSize=16;" edge="1" parent="1" source="0cJxZPgAgiQbFB9tsyrJ-134" target="0cJxZPgAgiQbFB9tsyrJ-27">
          <mxGeometry relative="1" as="geometry">
            <mxPoint x="600" y="-720" as="targetPoint" />
            <mxPoint x="550" y="-740" as="sourcePoint" />
          </mxGeometry>
        </mxCell>
        <mxCell id="0cJxZPgAgiQbFB9tsyrJ-27" value="BIRTHDAY" style="ellipse;whiteSpace=wrap;html=1;fontSize=16;" vertex="1" parent="1">
          <mxGeometry x="580" y="-640" width="120" height="80" as="geometry" />
        </mxCell>
        <mxCell id="0cJxZPgAgiQbFB9tsyrJ-30" value="JERSETNUMBER" style="ellipse;whiteSpace=wrap;html=1;fontSize=14;" vertex="1" parent="1">
          <mxGeometry x="410" y="-530" width="120" height="80" as="geometry" />
        </mxCell>
        <mxCell id="0cJxZPgAgiQbFB9tsyrJ-32" value="TEAMID" style="ellipse;whiteSpace=wrap;html=1;fontSize=16;" vertex="1" parent="1">
          <mxGeometry x="580" y="-530" width="120" height="80" as="geometry" />
        </mxCell>
        <mxCell id="0cJxZPgAgiQbFB9tsyrJ-34" value="" style="edgeStyle=orthogonalEdgeStyle;rounded=0;orthogonalLoop=1;jettySize=auto;html=1;curved=1;exitX=0.383;exitY=1.023;exitDx=0;exitDy=0;exitPerimeter=0;fontSize=16;" edge="1" parent="1" source="0cJxZPgAgiQbFB9tsyrJ-132" target="0cJxZPgAgiQbFB9tsyrJ-40">
          <mxGeometry relative="1" as="geometry">
            <Array as="points">
              <mxPoint x="1300" y="-249" />
              <mxPoint x="1300" y="-210" />
              <mxPoint x="1115" y="-210" />
            </Array>
            <mxPoint x="1300" y="-239.92000000000007" as="sourcePoint" />
          </mxGeometry>
        </mxCell>
        <mxCell id="0cJxZPgAgiQbFB9tsyrJ-35" value="" style="edgeStyle=orthogonalEdgeStyle;rounded=0;orthogonalLoop=1;jettySize=auto;html=1;curved=1;exitX=0.5;exitY=1;exitDx=0;exitDy=0;fontSize=16;" edge="1" parent="1" source="0cJxZPgAgiQbFB9tsyrJ-132" target="0cJxZPgAgiQbFB9tsyrJ-41">
          <mxGeometry relative="1" as="geometry">
            <mxPoint x="1315" y="-240" as="sourcePoint" />
          </mxGeometry>
        </mxCell>
        <mxCell id="0cJxZPgAgiQbFB9tsyrJ-36" value="" style="edgeStyle=orthogonalEdgeStyle;rounded=0;orthogonalLoop=1;jettySize=auto;html=1;curved=1;exitX=0.637;exitY=1.023;exitDx=0;exitDy=0;exitPerimeter=0;fontSize=16;" edge="1" parent="1" source="0cJxZPgAgiQbFB9tsyrJ-132" target="0cJxZPgAgiQbFB9tsyrJ-42">
          <mxGeometry relative="1" as="geometry">
            <Array as="points">
              <mxPoint x="1331" y="-210" />
              <mxPoint x="1545" y="-210" />
            </Array>
            <mxPoint x="1331.56" y="-239.76000000000022" as="sourcePoint" />
          </mxGeometry>
        </mxCell>
        <mxCell id="0cJxZPgAgiQbFB9tsyrJ-37" value="" style="edgeStyle=orthogonalEdgeStyle;rounded=0;orthogonalLoop=1;jettySize=auto;html=1;curved=1;entryX=0.5;entryY=0;entryDx=0;entryDy=0;exitX=0.5;exitY=1;exitDx=0;exitDy=0;fontSize=16;" edge="1" parent="1" source="0cJxZPgAgiQbFB9tsyrJ-132" target="0cJxZPgAgiQbFB9tsyrJ-45">
          <mxGeometry relative="1" as="geometry">
            <Array as="points" />
            <mxPoint x="1315" y="-240" as="sourcePoint" />
          </mxGeometry>
        </mxCell>
        <mxCell id="0cJxZPgAgiQbFB9tsyrJ-113" style="edgeStyle=orthogonalEdgeStyle;rounded=0;orthogonalLoop=1;jettySize=auto;html=1;entryX=1;entryY=0.5;entryDx=0;entryDy=0;exitX=0;exitY=0.5;exitDx=0;exitDy=0;fontSize=16;" edge="1" parent="1" source="0cJxZPgAgiQbFB9tsyrJ-132" target="0cJxZPgAgiQbFB9tsyrJ-115">
          <mxGeometry relative="1" as="geometry">
            <mxPoint x="789.9999999999998" y="-279.818181818182" as="targetPoint" />
            <mxPoint x="1240" y="-280" as="sourcePoint" />
          </mxGeometry>
        </mxCell>
        <mxCell id="0cJxZPgAgiQbFB9tsyrJ-40" value="MATCHID" style="ellipse;whiteSpace=wrap;html=1;fontStyle=5;fontSize=16;" vertex="1" parent="1">
          <mxGeometry x="1045" y="-140" width="120" height="80" as="geometry" />
        </mxCell>
        <mxCell id="0cJxZPgAgiQbFB9tsyrJ-41" value="HOMETEAMID" style="ellipse;whiteSpace=wrap;html=1;fontSize=16;" vertex="1" parent="1">
          <mxGeometry x="1175" y="-140" width="120" height="80" as="geometry" />
        </mxCell>
        <mxCell id="0cJxZPgAgiQbFB9tsyrJ-42" value="STADIUM" style="ellipse;whiteSpace=wrap;html=1;fontSize=16;" vertex="1" parent="1">
          <mxGeometry x="1475" y="-140" width="120" height="80" as="geometry" />
        </mxCell>
        <mxCell id="0cJxZPgAgiQbFB9tsyrJ-43" style="edgeStyle=orthogonalEdgeStyle;rounded=0;orthogonalLoop=1;jettySize=auto;html=1;exitX=0.5;exitY=1;exitDx=0;exitDy=0;curved=1;entryX=0.5;entryY=0;entryDx=0;entryDy=0;fontSize=16;" edge="1" parent="1" source="0cJxZPgAgiQbFB9tsyrJ-132" target="0cJxZPgAgiQbFB9tsyrJ-44">
          <mxGeometry relative="1" as="geometry">
            <mxPoint x="1365" y="-220" as="targetPoint" />
            <mxPoint x="1315" y="-240" as="sourcePoint" />
          </mxGeometry>
        </mxCell>
        <mxCell id="0cJxZPgAgiQbFB9tsyrJ-44" value="AWAYTEAMID" style="ellipse;whiteSpace=wrap;html=1;fontSize=16;" vertex="1" parent="1">
          <mxGeometry x="1345" y="-140" width="120" height="80" as="geometry" />
        </mxCell>
        <mxCell id="0cJxZPgAgiQbFB9tsyrJ-45" value="RESULT" style="ellipse;whiteSpace=wrap;html=1;fontSize=16;" vertex="1" parent="1">
          <mxGeometry x="1255" y="-30" width="120" height="80" as="geometry" />
        </mxCell>
        <mxCell id="0cJxZPgAgiQbFB9tsyrJ-47" value="" style="edgeStyle=orthogonalEdgeStyle;rounded=0;orthogonalLoop=1;jettySize=auto;html=1;curved=1;exitX=0.379;exitY=1.009;exitDx=0;exitDy=0;exitPerimeter=0;fontSize=16;" edge="1" parent="1" source="0cJxZPgAgiQbFB9tsyrJ-133" target="0cJxZPgAgiQbFB9tsyrJ-52">
          <mxGeometry relative="1" as="geometry">
            <Array as="points">
              <mxPoint x="222" y="90" />
              <mxPoint x="40" y="90" />
            </Array>
            <mxPoint x="222.5" y="60.090000000000146" as="sourcePoint" />
          </mxGeometry>
        </mxCell>
        <mxCell id="0cJxZPgAgiQbFB9tsyrJ-48" value="" style="edgeStyle=orthogonalEdgeStyle;rounded=0;orthogonalLoop=1;jettySize=auto;html=1;curved=1;exitX=0.5;exitY=1;exitDx=0;exitDy=0;fontSize=16;" edge="1" parent="1" source="0cJxZPgAgiQbFB9tsyrJ-133" target="0cJxZPgAgiQbFB9tsyrJ-53">
          <mxGeometry relative="1" as="geometry">
            <mxPoint x="240" y="60" as="sourcePoint" />
          </mxGeometry>
        </mxCell>
        <mxCell id="0cJxZPgAgiQbFB9tsyrJ-49" value="" style="edgeStyle=orthogonalEdgeStyle;rounded=0;orthogonalLoop=1;jettySize=auto;html=1;curved=1;exitX=0.633;exitY=1;exitDx=0;exitDy=0;exitPerimeter=0;fontSize=16;" edge="1" parent="1" source="0cJxZPgAgiQbFB9tsyrJ-133" target="0cJxZPgAgiQbFB9tsyrJ-54">
          <mxGeometry relative="1" as="geometry">
            <Array as="points">
              <mxPoint x="260" y="90" />
              <mxPoint x="470" y="90" />
            </Array>
            <mxPoint x="259.32000000000016" y="60.26999999999998" as="sourcePoint" />
          </mxGeometry>
        </mxCell>
        <mxCell id="0cJxZPgAgiQbFB9tsyrJ-50" value="" style="edgeStyle=orthogonalEdgeStyle;rounded=0;orthogonalLoop=1;jettySize=auto;html=1;curved=1;entryX=0.5;entryY=0;entryDx=0;entryDy=0;exitX=0.5;exitY=1;exitDx=0;exitDy=0;fontSize=16;" edge="1" parent="1" source="0cJxZPgAgiQbFB9tsyrJ-133" target="0cJxZPgAgiQbFB9tsyrJ-57">
          <mxGeometry relative="1" as="geometry">
            <Array as="points">
              <mxPoint x="240" y="220" />
              <mxPoint x="240" y="220" />
            </Array>
            <mxPoint x="240" y="60" as="sourcePoint" />
          </mxGeometry>
        </mxCell>
        <mxCell id="0cJxZPgAgiQbFB9tsyrJ-52" value="MATCHID" style="ellipse;whiteSpace=wrap;html=1;fontStyle=5;fontSize=16;" vertex="1" parent="1">
          <mxGeometry x="-30" y="160" width="120" height="80" as="geometry" />
        </mxCell>
        <mxCell id="0cJxZPgAgiQbFB9tsyrJ-53" value="PLAYERID" style="ellipse;whiteSpace=wrap;html=1;fontStyle=5;fontSize=16;" vertex="1" parent="1">
          <mxGeometry x="100" y="160" width="120" height="80" as="geometry" />
        </mxCell>
        <mxCell id="0cJxZPgAgiQbFB9tsyrJ-54" value="YELLOWCARD" style="ellipse;whiteSpace=wrap;html=1;fontSize=16;" vertex="1" parent="1">
          <mxGeometry x="400" y="160" width="120" height="80" as="geometry" />
        </mxCell>
        <mxCell id="0cJxZPgAgiQbFB9tsyrJ-55" style="edgeStyle=orthogonalEdgeStyle;rounded=0;orthogonalLoop=1;jettySize=auto;html=1;exitX=0.499;exitY=1.023;exitDx=0;exitDy=0;curved=1;entryX=0.5;entryY=0;entryDx=0;entryDy=0;exitPerimeter=0;fontSize=16;" edge="1" parent="1" source="0cJxZPgAgiQbFB9tsyrJ-133" target="0cJxZPgAgiQbFB9tsyrJ-56">
          <mxGeometry relative="1" as="geometry">
            <mxPoint x="290" y="80" as="targetPoint" />
            <mxPoint x="240" y="60" as="sourcePoint" />
          </mxGeometry>
        </mxCell>
        <mxCell id="0cJxZPgAgiQbFB9tsyrJ-56" value="GOALSSCORED" style="ellipse;whiteSpace=wrap;html=1;fontSize=16;" vertex="1" parent="1">
          <mxGeometry x="260" y="160" width="130" height="90" as="geometry" />
        </mxCell>
        <mxCell id="0cJxZPgAgiQbFB9tsyrJ-57" value="REDCARD" style="ellipse;whiteSpace=wrap;html=1;fontSize=16;" vertex="1" parent="1">
          <mxGeometry x="180" y="270" width="120" height="80" as="geometry" />
        </mxCell>
        <mxCell id="0cJxZPgAgiQbFB9tsyrJ-69" value="" style="edgeStyle=orthogonalEdgeStyle;rounded=0;orthogonalLoop=1;jettySize=auto;html=1;curved=1;exitX=0.375;exitY=1.033;exitDx=0;exitDy=0;exitPerimeter=0;fontSize=16;" edge="1" parent="1" source="0cJxZPgAgiQbFB9tsyrJ-131" target="0cJxZPgAgiQbFB9tsyrJ-74">
          <mxGeometry relative="1" as="geometry">
            <Array as="points">
              <mxPoint x="1300" y="300" />
              <mxPoint x="1115" y="300" />
            </Array>
            <mxPoint x="1300" y="270.0799999999999" as="sourcePoint" />
          </mxGeometry>
        </mxCell>
        <mxCell id="0cJxZPgAgiQbFB9tsyrJ-70" value="" style="edgeStyle=orthogonalEdgeStyle;rounded=0;orthogonalLoop=1;jettySize=auto;html=1;curved=1;exitX=0.5;exitY=1;exitDx=0;exitDy=0;fontSize=16;" edge="1" parent="1" source="0cJxZPgAgiQbFB9tsyrJ-131" target="0cJxZPgAgiQbFB9tsyrJ-75">
          <mxGeometry relative="1" as="geometry">
            <mxPoint x="1315" y="270" as="sourcePoint" />
          </mxGeometry>
        </mxCell>
        <mxCell id="0cJxZPgAgiQbFB9tsyrJ-71" value="" style="edgeStyle=orthogonalEdgeStyle;rounded=0;orthogonalLoop=1;jettySize=auto;html=1;curved=1;exitX=0.623;exitY=1.041;exitDx=0;exitDy=0;exitPerimeter=0;fontSize=16;" edge="1" parent="1" source="0cJxZPgAgiQbFB9tsyrJ-131" target="0cJxZPgAgiQbFB9tsyrJ-76">
          <mxGeometry relative="1" as="geometry">
            <Array as="points">
              <mxPoint x="1332" y="252" />
              <mxPoint x="1332" y="300" />
              <mxPoint x="1545" y="300" />
            </Array>
            <mxPoint x="1331.56" y="270.2399999999998" as="sourcePoint" />
          </mxGeometry>
        </mxCell>
        <mxCell id="0cJxZPgAgiQbFB9tsyrJ-72" value="" style="edgeStyle=orthogonalEdgeStyle;rounded=0;orthogonalLoop=1;jettySize=auto;html=1;curved=1;entryX=0.5;entryY=0;entryDx=0;entryDy=0;exitX=0.5;exitY=1;exitDx=0;exitDy=0;fontSize=16;" edge="1" parent="1" source="0cJxZPgAgiQbFB9tsyrJ-131" target="0cJxZPgAgiQbFB9tsyrJ-79">
          <mxGeometry relative="1" as="geometry">
            <Array as="points" />
            <mxPoint x="1315" y="270" as="sourcePoint" />
          </mxGeometry>
        </mxCell>
        <mxCell id="0cJxZPgAgiQbFB9tsyrJ-74" value="SUBID" style="ellipse;whiteSpace=wrap;html=1;fontStyle=5;fontSize=16;" vertex="1" parent="1">
          <mxGeometry x="1045" y="370" width="120" height="80" as="geometry" />
        </mxCell>
        <mxCell id="0cJxZPgAgiQbFB9tsyrJ-75" value="MATCHID" style="ellipse;whiteSpace=wrap;html=1;fontSize=16;" vertex="1" parent="1">
          <mxGeometry x="1175" y="370" width="120" height="80" as="geometry" />
        </mxCell>
        <mxCell id="0cJxZPgAgiQbFB9tsyrJ-76" value="OUTPLAYERID" style="ellipse;whiteSpace=wrap;html=1;fontSize=16;" vertex="1" parent="1">
          <mxGeometry x="1475" y="370" width="120" height="80" as="geometry" />
        </mxCell>
        <mxCell id="0cJxZPgAgiQbFB9tsyrJ-77" style="edgeStyle=orthogonalEdgeStyle;rounded=0;orthogonalLoop=1;jettySize=auto;html=1;exitX=0.5;exitY=1;exitDx=0;exitDy=0;curved=1;entryX=0.5;entryY=0;entryDx=0;entryDy=0;fontSize=16;" edge="1" parent="1" source="0cJxZPgAgiQbFB9tsyrJ-131" target="0cJxZPgAgiQbFB9tsyrJ-78">
          <mxGeometry relative="1" as="geometry">
            <mxPoint x="1365" y="290" as="targetPoint" />
            <mxPoint x="1315" y="270" as="sourcePoint" />
          </mxGeometry>
        </mxCell>
        <mxCell id="0cJxZPgAgiQbFB9tsyrJ-78" value="INPLAYERID" style="ellipse;whiteSpace=wrap;html=1;fontSize=16;" vertex="1" parent="1">
          <mxGeometry x="1345" y="370" width="120" height="80" as="geometry" />
        </mxCell>
        <mxCell id="0cJxZPgAgiQbFB9tsyrJ-79" value="TIMEMINUTE" style="ellipse;whiteSpace=wrap;html=1;fontSize=16;" vertex="1" parent="1">
          <mxGeometry x="1255" y="480" width="120" height="80" as="geometry" />
        </mxCell>
        <mxCell id="0cJxZPgAgiQbFB9tsyrJ-80" value="" style="edgeStyle=orthogonalEdgeStyle;rounded=0;orthogonalLoop=1;jettySize=auto;html=1;curved=1;exitX=0.32;exitY=0.996;exitDx=0;exitDy=0;exitPerimeter=0;entryX=0.5;entryY=0;entryDx=0;entryDy=0;fontSize=16;" edge="1" parent="1" source="0cJxZPgAgiQbFB9tsyrJ-128" target="0cJxZPgAgiQbFB9tsyrJ-85">
          <mxGeometry relative="1" as="geometry">
            <Array as="points">
              <mxPoint x="2208.93" y="-535" />
              <mxPoint x="1999.9299999999998" y="-535" />
            </Array>
            <mxPoint x="2204.93" y="-564.9200000000001" as="sourcePoint" />
          </mxGeometry>
        </mxCell>
        <mxCell id="0cJxZPgAgiQbFB9tsyrJ-81" value="" style="edgeStyle=orthogonalEdgeStyle;rounded=0;orthogonalLoop=1;jettySize=auto;html=1;curved=1;exitX=0.431;exitY=0.976;exitDx=0;exitDy=0;exitPerimeter=0;fontSize=16;" edge="1" parent="1" source="0cJxZPgAgiQbFB9tsyrJ-128" target="0cJxZPgAgiQbFB9tsyrJ-86">
          <mxGeometry relative="1" as="geometry">
            <mxPoint x="2219.93" y="-565" as="sourcePoint" />
          </mxGeometry>
        </mxCell>
        <mxCell id="0cJxZPgAgiQbFB9tsyrJ-82" value="" style="edgeStyle=orthogonalEdgeStyle;rounded=0;orthogonalLoop=1;jettySize=auto;html=1;curved=1;fontSize=16;entryX=0.5;entryY=0;entryDx=0;entryDy=0;" edge="1" parent="1" target="0cJxZPgAgiQbFB9tsyrJ-87">
          <mxGeometry relative="1" as="geometry">
            <Array as="points">
              <mxPoint x="2259.93" y="-535" />
              <mxPoint x="2429.93" y="-535" />
            </Array>
            <mxPoint x="2259.93" y="-563" as="sourcePoint" />
            <mxPoint x="2439.93" y="-485" as="targetPoint" />
          </mxGeometry>
        </mxCell>
        <mxCell id="0cJxZPgAgiQbFB9tsyrJ-85" value="REFEREEID" style="ellipse;whiteSpace=wrap;html=1;fontStyle=5;fontSize=16;" vertex="1" parent="1">
          <mxGeometry x="1939.9299999999998" y="-465" width="120" height="80" as="geometry" />
        </mxCell>
        <mxCell id="0cJxZPgAgiQbFB9tsyrJ-86" value="REFEREENAME" style="ellipse;whiteSpace=wrap;html=1;fontSize=16;" vertex="1" parent="1">
          <mxGeometry x="2069.93" y="-470" width="130" height="90" as="geometry" />
        </mxCell>
        <mxCell id="0cJxZPgAgiQbFB9tsyrJ-87" value="EXPERIENCEYEARS" style="ellipse;whiteSpace=wrap;html=1;fontSize=14;" vertex="1" parent="1">
          <mxGeometry x="2359.93" y="-465" width="140" height="100" as="geometry" />
        </mxCell>
        <mxCell id="0cJxZPgAgiQbFB9tsyrJ-88" style="edgeStyle=orthogonalEdgeStyle;rounded=0;orthogonalLoop=1;jettySize=auto;html=1;exitX=0.561;exitY=0.959;exitDx=0;exitDy=0;curved=1;entryX=0.5;entryY=0;entryDx=0;entryDy=0;exitPerimeter=0;fontSize=16;" edge="1" parent="1" source="0cJxZPgAgiQbFB9tsyrJ-128" target="0cJxZPgAgiQbFB9tsyrJ-89">
          <mxGeometry relative="1" as="geometry">
            <mxPoint x="2269.93" y="-545" as="targetPoint" />
            <mxPoint x="2219.93" y="-565" as="sourcePoint" />
          </mxGeometry>
        </mxCell>
        <mxCell id="0cJxZPgAgiQbFB9tsyrJ-89" value="REFEREEBITHDAY" style="ellipse;whiteSpace=wrap;html=1;fontSize=15;" vertex="1" parent="1">
          <mxGeometry x="2209.93" y="-470" width="140" height="100" as="geometry" />
        </mxCell>
        <mxCell id="0cJxZPgAgiQbFB9tsyrJ-91" value="" style="edgeStyle=orthogonalEdgeStyle;rounded=0;orthogonalLoop=1;jettySize=auto;html=1;curved=1;exitX=0.301;exitY=0.988;exitDx=0;exitDy=0;exitPerimeter=0;entryX=0.5;entryY=0;entryDx=0;entryDy=0;fontSize=16;" edge="1" parent="1" source="0cJxZPgAgiQbFB9tsyrJ-129" target="0cJxZPgAgiQbFB9tsyrJ-95">
          <mxGeometry relative="1" as="geometry">
            <Array as="points">
              <mxPoint x="2175.43" y="35" />
              <mxPoint x="2069.43" y="35" />
            </Array>
            <mxPoint x="2180.45" y="-5.960000000000036" as="sourcePoint" />
          </mxGeometry>
        </mxCell>
        <mxCell id="0cJxZPgAgiQbFB9tsyrJ-92" value="" style="edgeStyle=orthogonalEdgeStyle;rounded=0;orthogonalLoop=1;jettySize=auto;html=1;curved=1;exitX=0.5;exitY=1;exitDx=0;exitDy=0;fontSize=16;" edge="1" parent="1" source="0cJxZPgAgiQbFB9tsyrJ-129" target="0cJxZPgAgiQbFB9tsyrJ-96">
          <mxGeometry relative="1" as="geometry">
            <mxPoint x="2204.93" y="-5" as="sourcePoint" />
            <Array as="points" />
          </mxGeometry>
        </mxCell>
        <mxCell id="0cJxZPgAgiQbFB9tsyrJ-95" value="MATCHID" style="ellipse;whiteSpace=wrap;html=1;fontStyle=5;fontSize=16;" vertex="1" parent="1">
          <mxGeometry x="2009.9299999999998" y="95" width="120" height="80" as="geometry" />
        </mxCell>
        <mxCell id="0cJxZPgAgiQbFB9tsyrJ-96" value="REFEREEID" style="ellipse;whiteSpace=wrap;html=1;fontStyle=5;fontSize=16;" vertex="1" parent="1">
          <mxGeometry x="2144.93" y="95" width="120" height="80" as="geometry" />
        </mxCell>
        <mxCell id="0cJxZPgAgiQbFB9tsyrJ-98" style="edgeStyle=orthogonalEdgeStyle;rounded=0;orthogonalLoop=1;jettySize=auto;html=1;curved=1;entryX=0.5;entryY=0;entryDx=0;entryDy=0;exitX=0.704;exitY=1.014;exitDx=0;exitDy=0;exitPerimeter=0;fontSize=16;" edge="1" parent="1" source="0cJxZPgAgiQbFB9tsyrJ-129" target="0cJxZPgAgiQbFB9tsyrJ-99">
          <mxGeometry relative="1" as="geometry">
            <mxPoint x="2254.93" y="15" as="targetPoint" />
            <mxPoint x="2229.93" y="-5" as="sourcePoint" />
            <Array as="points">
              <mxPoint x="2235.43" y="-4" />
              <mxPoint x="2241.43" y="-4" />
              <mxPoint x="2241.43" y="35" />
              <mxPoint x="2338.43" y="35" />
              <mxPoint x="2338.43" y="95" />
            </Array>
          </mxGeometry>
        </mxCell>
        <mxCell id="0cJxZPgAgiQbFB9tsyrJ-99" value="REFEREEROEL" style="ellipse;whiteSpace=wrap;html=1;fontSize=16;" vertex="1" parent="1">
          <mxGeometry x="2274.93" y="95" width="126.5" height="80" as="geometry" />
        </mxCell>
        <mxCell id="0cJxZPgAgiQbFB9tsyrJ-104" value="&lt;br&gt;&lt;b&gt;N&lt;/b&gt;" style="text;html=1;align=center;verticalAlign=middle;resizable=0;points=[];autosize=1;strokeColor=none;fillColor=none;labelBackgroundColor=none;fontSize=16;" vertex="1" parent="1">
          <mxGeometry x="514" y="-880" width="40" height="50" as="geometry" />
        </mxCell>
        <mxCell id="0cJxZPgAgiQbFB9tsyrJ-111" value="&lt;br&gt;&lt;b&gt;N&lt;/b&gt;" style="text;html=1;align=center;verticalAlign=middle;resizable=0;points=[];autosize=1;strokeColor=none;fillColor=none;labelBackgroundColor=none;fontSize=16;" vertex="1" parent="1">
          <mxGeometry x="1415" y="-840" width="40" height="50" as="geometry" />
        </mxCell>
        <mxCell id="0cJxZPgAgiQbFB9tsyrJ-112" value="&lt;br&gt;&lt;b&gt;N&lt;/b&gt;" style="text;html=1;align=center;verticalAlign=middle;resizable=0;points=[];autosize=1;strokeColor=none;fillColor=none;labelBackgroundColor=none;fontSize=16;" vertex="1" parent="1">
          <mxGeometry x="1415" y="-335" width="40" height="50" as="geometry" />
        </mxCell>
        <mxCell id="0cJxZPgAgiQbFB9tsyrJ-116" style="edgeStyle=orthogonalEdgeStyle;rounded=0;orthogonalLoop=1;jettySize=auto;html=1;exitX=0;exitY=1;exitDx=0;exitDy=0;entryX=0.5;entryY=0;entryDx=0;entryDy=0;fontSize=16;" edge="1" parent="1" source="0cJxZPgAgiQbFB9tsyrJ-115" target="0cJxZPgAgiQbFB9tsyrJ-133">
          <mxGeometry relative="1" as="geometry">
            <mxPoint x="240" y="-50" as="targetPoint" />
            <Array as="points">
              <mxPoint x="615" y="-170" />
              <mxPoint x="240" y="-170" />
            </Array>
          </mxGeometry>
        </mxCell>
        <mxCell id="0cJxZPgAgiQbFB9tsyrJ-123" style="edgeStyle=orthogonalEdgeStyle;rounded=0;orthogonalLoop=1;jettySize=auto;html=1;exitX=1;exitY=1;exitDx=0;exitDy=0;entryX=0.5;entryY=0;entryDx=0;entryDy=0;fontSize=16;" edge="1" parent="1" source="0cJxZPgAgiQbFB9tsyrJ-115" target="0cJxZPgAgiQbFB9tsyrJ-131">
          <mxGeometry relative="1" as="geometry">
            <mxPoint x="1320" y="170" as="targetPoint" />
            <Array as="points">
              <mxPoint x="655" y="130" />
              <mxPoint x="1315" y="130" />
            </Array>
          </mxGeometry>
        </mxCell>
        <mxCell id="0cJxZPgAgiQbFB9tsyrJ-115" value="ONE MACH" style="rhombus;whiteSpace=wrap;html=1;fontSize=16;" vertex="1" parent="1">
          <mxGeometry x="595" y="-320" width="80" height="80" as="geometry" />
        </mxCell>
        <mxCell id="0cJxZPgAgiQbFB9tsyrJ-118" value="1" style="edgeLabel;html=1;align=center;verticalAlign=middle;resizable=0;points=[];fontSize=16;labelBackgroundColor=none;fontStyle=1" vertex="1" connectable="0" parent="1">
          <mxGeometry x="260" y="-70.00333333333344" as="geometry" />
        </mxCell>
        <mxCell id="0cJxZPgAgiQbFB9tsyrJ-119" value="1" style="edgeLabel;html=1;align=center;verticalAlign=middle;resizable=0;points=[];fontSize=16;labelBackgroundColor=none;fontStyle=1" vertex="1" connectable="0" parent="1">
          <mxGeometry x="595" y="-240.00333333333344" as="geometry" />
        </mxCell>
        <mxCell id="0cJxZPgAgiQbFB9tsyrJ-120" value="N" style="edgeLabel;html=1;align=center;verticalAlign=middle;resizable=0;points=[];fontSize=16;labelBackgroundColor=none;fontStyle=1" vertex="1" connectable="0" parent="1">
          <mxGeometry x="561" y="-298.00333333333344" as="geometry">
            <mxPoint y="5" as="offset" />
          </mxGeometry>
        </mxCell>
        <mxCell id="0cJxZPgAgiQbFB9tsyrJ-121" value="1" style="edgeLabel;html=1;align=center;verticalAlign=middle;resizable=0;points=[];fontSize=16;labelBackgroundColor=none;fontStyle=1" vertex="1" connectable="0" parent="1">
          <mxGeometry x="693" y="-297.00333333333344" as="geometry" />
        </mxCell>
        <mxCell id="0cJxZPgAgiQbFB9tsyrJ-122" value="1" style="edgeLabel;html=1;align=center;verticalAlign=middle;resizable=0;points=[];fontSize=16;labelBackgroundColor=none;fontStyle=1" vertex="1" connectable="0" parent="1">
          <mxGeometry x="1230" y="-300.00333333333344" as="geometry" />
        </mxCell>
        <mxCell id="0cJxZPgAgiQbFB9tsyrJ-124" value="1" style="edgeLabel;html=1;align=center;verticalAlign=middle;resizable=0;points=[];fontSize=16;labelBackgroundColor=none;fontStyle=1" vertex="1" connectable="0" parent="1">
          <mxGeometry x="610" y="-230.00333333333344" as="geometry">
            <mxPoint x="61" y="-7" as="offset" />
          </mxGeometry>
        </mxCell>
        <mxCell id="0cJxZPgAgiQbFB9tsyrJ-125" value="1" style="edgeLabel;html=1;align=center;verticalAlign=middle;resizable=0;points=[];fontSize=16;labelBackgroundColor=none;fontStyle=1" vertex="1" connectable="0" parent="1">
          <mxGeometry x="1330" y="159.99666666666656" as="geometry" />
        </mxCell>
        <mxCell id="0cJxZPgAgiQbFB9tsyrJ-136" style="edgeStyle=orthogonalEdgeStyle;rounded=0;orthogonalLoop=1;jettySize=auto;html=1;entryX=1;entryY=0.5;entryDx=0;entryDy=0;" edge="1" parent="1" source="0cJxZPgAgiQbFB9tsyrJ-128" target="0cJxZPgAgiQbFB9tsyrJ-129">
          <mxGeometry relative="1" as="geometry">
            <Array as="points">
              <mxPoint x="2550" y="-595" />
              <mxPoint x="2550" y="-30" />
            </Array>
          </mxGeometry>
        </mxCell>
        <mxCell id="0cJxZPgAgiQbFB9tsyrJ-128" value="REFEREE" style="rounded=0;whiteSpace=wrap;html=1;fontSize=16;" vertex="1" parent="1">
          <mxGeometry x="2170.93" y="-625" width="120" height="60" as="geometry" />
        </mxCell>
        <mxCell id="0cJxZPgAgiQbFB9tsyrJ-129" value="MATCHREFEREE" style="rounded=0;whiteSpace=wrap;html=1;fontSize=16;" vertex="1" parent="1">
          <mxGeometry x="2129.93" y="-65" width="150" height="70" as="geometry" />
        </mxCell>
        <mxCell id="0cJxZPgAgiQbFB9tsyrJ-130" value="TEAM" style="rounded=0;whiteSpace=wrap;html=1;fontSize=16;" vertex="1" parent="1">
          <mxGeometry x="1270" y="-810" width="120" height="60" as="geometry" />
        </mxCell>
        <mxCell id="0cJxZPgAgiQbFB9tsyrJ-131" value="SUBSTITUTION" style="rounded=0;whiteSpace=wrap;html=1;fontSize=16;" vertex="1" parent="1">
          <mxGeometry x="1255" y="200" width="120" height="60" as="geometry" />
        </mxCell>
        <mxCell id="0cJxZPgAgiQbFB9tsyrJ-140" style="edgeStyle=orthogonalEdgeStyle;rounded=0;orthogonalLoop=1;jettySize=auto;html=1;entryX=0;entryY=0.5;entryDx=0;entryDy=0;exitX=1;exitY=0.75;exitDx=0;exitDy=0;" edge="1" parent="1" source="0cJxZPgAgiQbFB9tsyrJ-132" target="0cJxZPgAgiQbFB9tsyrJ-129">
          <mxGeometry relative="1" as="geometry">
            <mxPoint x="1400" y="-260" as="sourcePoint" />
            <Array as="points">
              <mxPoint x="1752" y="-265" />
              <mxPoint x="1752" y="-30" />
            </Array>
          </mxGeometry>
        </mxCell>
        <mxCell id="0cJxZPgAgiQbFB9tsyrJ-132" value="MATCH" style="rounded=0;whiteSpace=wrap;html=1;fontSize=16;" vertex="1" parent="1">
          <mxGeometry x="1255" y="-310" width="120" height="60" as="geometry" />
        </mxCell>
        <mxCell id="0cJxZPgAgiQbFB9tsyrJ-133" value="PLAYERPARTICIPTION" style="rounded=0;whiteSpace=wrap;html=1;fontSize=16;" vertex="1" parent="1">
          <mxGeometry x="150" y="-30" width="180" height="80" as="geometry" />
        </mxCell>
        <mxCell id="0cJxZPgAgiQbFB9tsyrJ-134" value="PLAYER" style="rounded=0;whiteSpace=wrap;html=1;fontSize=16;" vertex="1" parent="1">
          <mxGeometry x="490" y="-810" width="120" height="60" as="geometry" />
        </mxCell>
        <mxCell id="0cJxZPgAgiQbFB9tsyrJ-137" value="N" style="edgeLabel;html=1;align=center;verticalAlign=middle;resizable=0;points=[];fontSize=16;labelBackgroundColor=none;fontStyle=1" vertex="1" connectable="0" parent="1">
          <mxGeometry x="1340" y="-865.3333333333335" as="geometry">
            <mxPoint x="-911" y="76" as="offset" />
          </mxGeometry>
        </mxCell>
        <mxCell id="0cJxZPgAgiQbFB9tsyrJ-138" value="3" style="text;html=1;align=center;verticalAlign=middle;resizable=0;points=[];autosize=1;strokeColor=none;fillColor=none;fontSize=16;fontStyle=1" vertex="1" parent="1">
          <mxGeometry x="2320" y="-630" width="30" height="30" as="geometry" />
        </mxCell>
        <mxCell id="0cJxZPgAgiQbFB9tsyrJ-139" value="1" style="text;html=1;align=center;verticalAlign=middle;resizable=0;points=[];autosize=1;strokeColor=none;fillColor=none;fontSize=16;fontStyle=1" vertex="1" parent="1">
          <mxGeometry x="2315" y="-65" width="30" height="30" as="geometry" />
        </mxCell>
        <mxCell id="0cJxZPgAgiQbFB9tsyrJ-141" value="1" style="text;html=1;align=center;verticalAlign=middle;resizable=0;points=[];autosize=1;strokeColor=none;fillColor=none;fontSize=16;fontStyle=1" vertex="1" parent="1">
          <mxGeometry x="1420" y="-264" width="30" height="30" as="geometry" />
        </mxCell>
        <mxCell id="0cJxZPgAgiQbFB9tsyrJ-142" value="1" style="text;html=1;align=center;verticalAlign=middle;resizable=0;points=[];autosize=1;strokeColor=none;fillColor=none;fontSize=16;fontStyle=1" vertex="1" parent="1">
          <mxGeometry x="2080" y="-65" width="30" height="30" as="geometry" />
        </mxCell>
      </root>
    </mxGraphModel>
  </diagram>
</mxfile>
